G04 DipTrace 3.3.1.3*
G04 BottomSilk.gbr*
%MOMM*%
G04 #@! TF.FileFunction,Legend,Bot*
G04 #@! TF.Part,Single*
%ADD10C,0.25*%
%ADD28O,0.39127X0.39172*%
%ADD65C,0.11765*%
%FSLAX35Y35*%
G04*
G71*
G90*
G75*
G01*
G04 BotSilk*
%LPD*%
D28*
X2906644Y1968361D3*
X2930014Y1841000D2*
D10*
X3230000D1*
Y1791000D1*
X2930014D1*
Y1841000D1*
X3120954Y1268961D2*
D65*
X3124576Y1276205D1*
X3131904Y1283533D1*
X3139148Y1287155D1*
X3153720D1*
X3161048Y1283533D1*
X3168291Y1276205D1*
X3171998Y1268961D1*
X3175620Y1258011D1*
Y1239733D1*
X3171998Y1228867D1*
X3168291Y1221539D1*
X3161048Y1214295D1*
X3153720Y1210589D1*
X3139148D1*
X3131904Y1214295D1*
X3124576Y1221539D1*
X3120954Y1228867D1*
X3090096Y1287071D2*
X3050087D1*
X3071902Y1257927D1*
X3060952D1*
X3053709Y1254305D1*
X3050087Y1250683D1*
X3046380Y1239733D1*
Y1232489D1*
X3050087Y1221539D1*
X3057330Y1214211D1*
X3068280Y1210589D1*
X3079230D1*
X3090096Y1214211D1*
X3093718Y1217917D1*
X3097424Y1225161D1*
X3104966Y2099539D2*
Y2022973D1*
X3079444D1*
X3068494Y2026679D1*
X3061166Y2033923D1*
X3057544Y2041251D1*
X3053922Y2052117D1*
Y2070395D1*
X3057544Y2081345D1*
X3061166Y2088589D1*
X3068494Y2095917D1*
X3079444Y2099539D1*
X3104966D1*
X3030392Y2084882D2*
X3023064Y2088589D1*
X3012114Y2099454D1*
Y2022973D1*
X3399426Y1727120D2*
X3366660D1*
X3355710Y1730826D1*
X3352004Y1734448D1*
X3348382Y1741692D1*
Y1749020D1*
X3352004Y1756264D1*
X3355710Y1759970D1*
X3366660Y1763592D1*
X3399426D1*
Y1687026D1*
X3373904Y1727120D2*
X3348382Y1687026D1*
X3324852Y1748936D2*
X3317524Y1752642D1*
X3306574Y1763508D1*
Y1687026D1*
X3414809Y1491120D2*
X3382043D1*
X3371093Y1494826D1*
X3367387Y1498448D1*
X3363765Y1505692D1*
Y1513020D1*
X3367387Y1520264D1*
X3371093Y1523970D1*
X3382043Y1527592D1*
X3414809D1*
Y1451026D1*
X3389287Y1491120D2*
X3363765Y1451026D1*
X3336529Y1509314D2*
Y1512936D1*
X3332907Y1520264D1*
X3329285Y1523886D1*
X3321957Y1527508D1*
X3307385D1*
X3300141Y1523886D1*
X3296520Y1520264D1*
X3292813Y1512936D1*
Y1505692D1*
X3296520Y1498364D1*
X3303763Y1487498D1*
X3340235Y1451026D1*
X3289191D1*
X2811880Y1523809D2*
Y1491043D1*
X2808174Y1480093D1*
X2804552Y1476387D1*
X2797308Y1472765D1*
X2789980D1*
X2782736Y1476387D1*
X2779030Y1480093D1*
X2775408Y1491043D1*
Y1523809D1*
X2851974D1*
X2811880Y1498287D2*
X2851974Y1472765D1*
X2775492Y1405520D2*
Y1441908D1*
X2808258Y1445529D1*
X2804636Y1441907D1*
X2800930Y1430958D1*
Y1420092D1*
X2804636Y1409142D1*
X2811880Y1401814D1*
X2822830Y1398192D1*
X2830074D1*
X2841024Y1401814D1*
X2848352Y1409142D1*
X2851974Y1420092D1*
Y1430957D1*
X2848352Y1441907D1*
X2844646Y1445529D1*
X2837402Y1449235D1*
X2600880Y1786956D2*
Y1754190D1*
X2597174Y1743240D1*
X2593552Y1739534D1*
X2586308Y1735912D1*
X2578980D1*
X2571736Y1739534D1*
X2568030Y1743240D1*
X2564408Y1754190D1*
Y1786956D1*
X2640974Y1786955D1*
X2600880Y1761434D2*
X2640974Y1735912D1*
X2575358Y1668667D2*
X2568114Y1672289D1*
X2564492Y1683239D1*
Y1690483D1*
X2568114Y1701433D1*
X2579064Y1708761D1*
X2597258Y1712382D1*
X2615452D1*
X2630024Y1708760D1*
X2637352Y1701432D1*
X2640974Y1690482D1*
Y1686861D1*
X2637352Y1675995D1*
X2630024Y1668667D1*
X2619074Y1665045D1*
X2615452D1*
X2604502Y1668667D1*
X2597258Y1675995D1*
X2593636Y1686861D1*
Y1690483D1*
X2597258Y1701432D1*
X2604502Y1708761D1*
X2615452Y1712382D1*
M02*
