G04 DipTrace 3.3.1.3*
G04 Bottom.gbr*
%MOMM*%
G04 #@! TF.FileFunction,Copper,L2,Bot*
G04 #@! TF.Part,Single*
G04 #@! TA.AperFunction,Conductor*
%ADD14C,0.7*%
G04 #@! TA.AperFunction,CopperBalancing*
%ADD15C,0.2*%
G04 #@! TA.AperFunction,Conductor*
%ADD16C,1.0*%
%ADD17C,1.5*%
%ADD18C,2.0*%
%ADD20C,0.65*%
G04 #@! TA.AperFunction,ViaPad*
%ADD21C,1.016*%
G04 #@! TA.AperFunction,CopperBalancing*
%ADD24C,0.635*%
%ADD25R,1.1X1.0*%
%ADD27R,1.0X1.1*%
%ADD29R,0.65X1.05*%
G04 #@! TA.AperFunction,ComponentPad*
%ADD30R,1.5X1.5*%
%ADD31C,1.5*%
%FSLAX35Y35*%
G04*
G71*
G90*
G75*
G01*
G04 Bottom*
%LPD*%
X3437000Y1366000D2*
D15*
X3605000D1*
X3745000Y1226000D1*
Y1174000D1*
X3095000Y2438000D2*
Y2288000D1*
X3078000Y2271000D1*
X2959000D1*
X2646000Y1958000D1*
Y1494000D1*
X2729000Y1411000D1*
Y1174000D1*
X4037000Y3116000D2*
D17*
X3837000D1*
X3578970D1*
D18*
Y3275000D1*
X3031000D1*
X2140000D1*
Y2800440D1*
Y2117000D1*
X2034000Y2011000D1*
X1743347D1*
X1486753D1*
X1182000D1*
Y1377000D1*
X1205000Y1354000D1*
D17*
Y1174000D1*
X1459000D2*
Y1354000D1*
D18*
Y1983247D1*
X1486753Y2011000D1*
X1713000Y1174000D2*
D17*
Y1354000D1*
D18*
Y1980653D1*
X1743347Y2011000D1*
X3016000Y3069000D2*
D14*
X3031000D1*
Y3275000D1*
X3684000Y2748000D2*
D16*
X3578970Y2853030D1*
Y3116000D1*
X4036000Y1465000D2*
Y1581000D1*
X3984000Y1633000D1*
X3844047D1*
X3749627D1*
Y1602000D1*
X3438000D1*
X4036000Y1581000D2*
Y2396000D1*
X3684000Y2748000D1*
X2985000Y1931000D2*
D14*
Y1818000D1*
X3373000D1*
X3438000Y1753000D1*
Y1602000D1*
X2985000Y1931000D2*
Y1751000D1*
X2937000Y1703000D1*
Y1546000D1*
X2856000Y1733000D2*
X2985000D1*
Y1751000D1*
X2913000Y2042000D2*
Y2003000D1*
D20*
X2985000Y1931000D1*
X3111000Y1538000D2*
D14*
X2937000D1*
Y1546000D1*
X2766000Y2872000D2*
X2694440Y2800440D1*
X2140000D1*
X3117000Y2754000D2*
X2884000D1*
X2766000Y2872000D1*
X4024000Y1802000D2*
D17*
X3844047Y1633000D1*
X4030000Y1682000D2*
D16*
Y1633000D1*
X3984000D1*
X3786000Y1800000D2*
X3749627Y1763627D1*
Y1633000D1*
X2726000Y1811000D2*
D15*
Y1969000D1*
X2968000Y2211000D1*
X3087000D1*
X3236000Y2360000D1*
Y2472000D1*
X2825000Y2300000D2*
X2894000Y2369000D1*
Y2514000D1*
X3030000Y2650000D1*
X3191000D1*
X3236000Y2605000D1*
Y2472000D1*
X4037000Y3316000D2*
D17*
X3837000D1*
X4037000Y2916000D2*
X3837000D1*
X2937000Y1376000D2*
D15*
Y1220000D1*
X2983000Y1174000D1*
X2726000Y1641000D2*
Y1526000D1*
X2876000Y1376000D1*
X2937000D1*
X3237000Y1174000D2*
Y1336000D1*
X3267000Y1366000D1*
Y1601000D1*
X3268000Y1602000D1*
X3080000Y1701000D2*
Y1681000D1*
X3202000D1*
X3268000Y1615000D1*
Y1602000D1*
X3111000Y1368000D2*
X3157000D1*
X3159000Y1366000D1*
X3267000D1*
X3175000Y1931000D2*
Y2018000D1*
X3074000Y2119000D1*
X3029000D1*
X2022000Y1486000D2*
D14*
X2496000D1*
X2563000Y1553000D1*
Y2034570D1*
X2684430Y2156000D1*
D21*
X3095000Y2438000D3*
X3016000Y3069000D3*
X3684000Y2748000D3*
X4036000Y1465000D3*
X3684000Y2748000D3*
X2856000Y1733000D3*
X2913000Y2042000D3*
X2766000Y2872000D3*
X3117000Y2754000D3*
X2766000Y2872000D3*
X4024000Y1802000D3*
X3786000Y1800000D3*
X3236000Y2472000D3*
X2825000Y2300000D3*
X3029000Y2119000D3*
X2022000Y1486000D3*
X2684430Y2156000D3*
X3903000Y1800000D3*
X4030000Y1682000D3*
X3907000Y1687000D3*
X2088067Y3271083D2*
D24*
X3677802D1*
X2088067Y3207917D2*
X3700589D1*
X2088067Y3144750D2*
X3673974D1*
X2088067Y3081583D2*
X3675159D1*
X2088067Y3018417D2*
X3704782D1*
X2088067Y2955250D2*
X3676253D1*
X2088067Y2892083D2*
X3673154D1*
X2088067Y2828917D2*
X3697308D1*
X2088067Y2765750D2*
X3777789D1*
X2088067Y2702583D2*
X2942893D1*
X3278159D2*
X4061891D1*
X2088067Y2639417D2*
X2879729D1*
X3330112D2*
X4061891D1*
X2088067Y2576250D2*
X2816839D1*
X3336674D2*
X4061891D1*
X2088067Y2513083D2*
X2793323D1*
X3371036D2*
X4061891D1*
X2088067Y2449917D2*
X2793323D1*
X3375593D2*
X4061891D1*
X2088067Y2386750D2*
X2715120D1*
X3347156D2*
X4061891D1*
X2088067Y2323583D2*
X2685680D1*
X3329291D2*
X4061891D1*
X2088067Y2260417D2*
X2592347D1*
X3276153D2*
X4061891D1*
X2088067Y2197250D2*
X2549417D1*
X3212989D2*
X4061891D1*
X2088067Y2134083D2*
X2487438D1*
X3198588D2*
X4061891D1*
X1138146Y2070917D2*
X2443050D1*
X3259383D2*
X4061891D1*
X1138146Y2007750D2*
X2437399D1*
X3298120D2*
X4061891D1*
X1138146Y1944583D2*
X2437399D1*
X3298120D2*
X4061891D1*
X1138146Y1881417D2*
X2437399D1*
X3298120D2*
X4061891D1*
X1138146Y1818250D2*
X2437399D1*
X3298120D2*
X4061891D1*
X1138146Y1755083D2*
X2437399D1*
X3266674D2*
X4061891D1*
X1138146Y1691917D2*
X2437399D1*
X3583679D2*
X4061891D1*
X1138146Y1628750D2*
X2437399D1*
X3583679D2*
X4061891D1*
X1138146Y1565583D2*
X1906474D1*
X3583679D2*
X4061891D1*
X1138146Y1502417D2*
X1881591D1*
X3583679D2*
X4061891D1*
X1138146Y1439250D2*
X1888883D1*
X3670724D2*
X4061891D1*
X1138146Y1376083D2*
X1937099D1*
X2548718D2*
X2624248D1*
X3734617D2*
X4061891D1*
X1289265Y1312917D2*
X1374729D1*
X1543289D2*
X1628662D1*
X1797312D2*
X1882685D1*
X2051336D2*
X2136709D1*
X2305268D2*
X2390732D1*
X2559291D2*
X2628349D1*
X3254994Y2067790D2*
X3291790D1*
Y1794210D1*
X3196725D1*
X3196790Y1775355D1*
X3216750Y1774129D1*
X3231137Y1770675D1*
X3244807Y1765013D1*
X3257422Y1757282D1*
X3268673Y1747673D1*
X3280081Y1736266D1*
X3577290Y1736290D1*
Y1467710D1*
X3576288D1*
X3577000Y1460290D1*
X3612398Y1460000D1*
X3627012Y1457685D1*
X3641083Y1453113D1*
X3654267Y1446396D1*
X3666237Y1437699D1*
X3754169Y1350178D1*
X3773697Y1330649D1*
X3794223Y1325494D1*
X3817316Y1315928D1*
X3838628Y1302868D1*
X3839741Y1301991D1*
X3839710Y1333290D1*
X4068213D1*
X4068250Y2756716D1*
X3837000Y2756710D1*
X3812082Y2758671D1*
X3787777Y2764506D1*
X3764684Y2774071D1*
X3743371Y2787131D1*
X3724365Y2803365D1*
X3708131Y2822371D1*
X3695071Y2843684D1*
X3685506Y2866777D1*
X3679671Y2891082D1*
X3677710Y2916000D1*
X3679671Y2940918D1*
X3685506Y2965223D1*
X3695071Y2988316D1*
X3708162Y3009667D1*
X3710325Y3019426D1*
X3699902Y3034899D1*
X3691360Y3051484D1*
X3684816Y3068955D1*
X3680359Y3087070D1*
X3678051Y3105583D1*
X3677923Y3124239D1*
X3679977Y3142781D1*
X3684186Y3160956D1*
X3690490Y3178515D1*
X3698804Y3195216D1*
X3709014Y3210830D1*
X3713029Y3215997D1*
X3701183Y3232771D1*
X3689835Y3255042D1*
X3682111Y3278814D1*
X3678201Y3303502D1*
X3678206Y3328546D1*
X3656667Y3334250D1*
X2081758D1*
X2081359Y2111033D1*
X2079333Y2103850D1*
X2075686Y2097338D1*
X2070620Y2091857D1*
X2064414Y2087711D1*
X2057412Y2085127D1*
X2050000Y2084250D1*
X1131706D1*
X1131750Y1315466D1*
X1150801Y1323786D1*
X1168686Y1329095D1*
X1187068Y1332277D1*
X1205697Y1333288D1*
X1224316Y1332115D1*
X1242670Y1328772D1*
X1260507Y1323306D1*
X1277583Y1315792D1*
X1293664Y1306333D1*
X1308528Y1295059D1*
X1321972Y1282125D1*
X1331985Y1270142D1*
X1346226Y1286496D1*
X1360152Y1298909D1*
X1375434Y1309610D1*
X1391863Y1318450D1*
X1409212Y1325309D1*
X1427244Y1330093D1*
X1445712Y1332735D1*
X1464363Y1333200D1*
X1482939Y1331481D1*
X1501187Y1327602D1*
X1518857Y1321616D1*
X1535706Y1313605D1*
X1551502Y1303679D1*
X1566029Y1291975D1*
X1579089Y1278652D1*
X1585985Y1270142D1*
X1600226Y1286496D1*
X1614152Y1298909D1*
X1629434Y1309610D1*
X1645863Y1318450D1*
X1663212Y1325309D1*
X1681244Y1330093D1*
X1699712Y1332735D1*
X1718363Y1333200D1*
X1736939Y1331481D1*
X1755187Y1327602D1*
X1772857Y1321616D1*
X1789706Y1313605D1*
X1805502Y1303679D1*
X1820029Y1291975D1*
X1833089Y1278652D1*
X1839985Y1270142D1*
X1854365Y1286635D1*
X1873372Y1302868D1*
X1894684Y1315928D1*
X1917777Y1325494D1*
X1942082Y1331329D1*
X1967000Y1333290D1*
X1991918Y1331329D1*
X2016223Y1325494D1*
X2039316Y1315928D1*
X2060628Y1302868D1*
X2079635Y1286635D1*
X2093963Y1270046D1*
X2108365Y1286635D1*
X2127372Y1302868D1*
X2148684Y1315928D1*
X2171777Y1325494D1*
X2196082Y1331329D1*
X2221000Y1333290D1*
X2245918Y1331329D1*
X2270223Y1325494D1*
X2293316Y1315928D1*
X2314628Y1302868D1*
X2333635Y1286635D1*
X2347963Y1270046D1*
X2362365Y1286635D1*
X2381372Y1302868D1*
X2402684Y1315928D1*
X2425777Y1325494D1*
X2450082Y1331329D1*
X2475000Y1333290D1*
X2499918Y1331329D1*
X2524223Y1325494D1*
X2547316Y1315928D1*
X2568628Y1302868D1*
X2587635Y1286635D1*
X2601963Y1270046D1*
X2616365Y1286635D1*
X2634719Y1302354D1*
X2634710Y1371878D1*
X2592657Y1413997D1*
X2573473Y1395291D1*
X2558329Y1384288D1*
X2541650Y1375790D1*
X2523848Y1370006D1*
X2505359Y1367077D1*
X2426000Y1366710D1*
X2085388D1*
X2073697Y1361193D1*
X2053536Y1354643D1*
X2032599Y1351326D1*
X2011401D1*
X1990464Y1354643D1*
X1970303Y1361193D1*
X1951416Y1370817D1*
X1934266Y1383277D1*
X1919277Y1398266D1*
X1906817Y1415416D1*
X1897193Y1434303D1*
X1890643Y1454464D1*
X1887326Y1475401D1*
Y1496599D1*
X1890643Y1517536D1*
X1897193Y1537697D1*
X1906817Y1556584D1*
X1919277Y1573734D1*
X1934266Y1588723D1*
X1951416Y1601183D1*
X1970303Y1610807D1*
X1990464Y1617357D1*
X2011401Y1620674D1*
X2032599D1*
X2053536Y1617357D1*
X2073697Y1610807D1*
X2085246Y1605293D1*
X2443732Y1605290D1*
X2444077Y2043929D1*
X2447006Y2062418D1*
X2452790Y2080220D1*
X2461288Y2096899D1*
X2472291Y2112043D1*
X2528146Y2168419D1*
X2555280Y2195552D1*
X2559623Y2207697D1*
X2569247Y2226584D1*
X2581707Y2243734D1*
X2596696Y2258723D1*
X2613846Y2271183D1*
X2632733Y2280807D1*
X2652894Y2287357D1*
X2673831Y2290674D1*
X2690185Y2290864D1*
X2690326Y2310599D1*
X2693643Y2331536D1*
X2700193Y2351697D1*
X2709817Y2370584D1*
X2722277Y2387734D1*
X2737266Y2402723D1*
X2754416Y2415183D1*
X2773303Y2424807D1*
X2793464Y2431357D1*
X2799682Y2432594D1*
X2800000Y2521398D1*
X2802315Y2536012D1*
X2806887Y2550083D1*
X2813604Y2563267D1*
X2822301Y2575237D1*
X2909823Y2663169D1*
X2968763Y2721699D1*
X2980733Y2730396D1*
X2993917Y2737113D1*
X3007988Y2741685D1*
X3022602Y2744000D1*
X3146667Y2744290D1*
X3198398Y2744000D1*
X3213012Y2741685D1*
X3227083Y2737113D1*
X3240267Y2730396D1*
X3252237Y2721699D1*
X3302673Y2671673D1*
X3312282Y2660422D1*
X3320013Y2647807D1*
X3325675Y2634137D1*
X3329129Y2619750D1*
X3330290Y2605000D1*
Y2568815D1*
X3345290Y2551404D1*
X3356366Y2533330D1*
X3364478Y2513745D1*
X3369427Y2493133D1*
X3371090Y2472000D1*
X3369427Y2450867D1*
X3364478Y2430255D1*
X3356366Y2410670D1*
X3345290Y2392596D1*
X3331523Y2376477D1*
X3330276Y2375324D1*
X3330000Y2352602D1*
X3327685Y2337988D1*
X3323113Y2323917D1*
X3316396Y2310734D1*
X3307699Y2298763D1*
X3220177Y2210831D1*
X3167909Y2158562D1*
X3246699Y2079237D1*
X3251299Y2073398D1*
X3438000Y1602000D2*
D15*
X3577199D1*
X3677801Y3116000D2*
X3837000D1*
D27*
X3111000Y1538000D3*
Y1368000D3*
D29*
X2985000Y1931000D3*
X3175000D3*
X3080000Y1701000D3*
D30*
X3999000Y1174000D3*
D31*
X3745000D3*
X3491000D3*
X3237000D3*
X2983000D3*
X2729000D3*
X2475000D3*
X2221000D3*
X1967000D3*
X1713000D3*
X1459000D3*
X1205000D3*
D25*
X3268000Y1602000D3*
X3438000D3*
X3437000Y1366000D3*
X3267000D3*
D27*
X2937000Y1376000D3*
Y1546000D3*
X2726000Y1811000D3*
Y1641000D3*
D30*
X4037000Y2916000D3*
D31*
Y3116000D3*
Y3316000D3*
X3837000D3*
Y3116000D3*
Y2916000D3*
M02*
