M48
METRIC,0000.00
T01C0.486
T02C0.9
%
T01
X+003903Y+001800
X+003907Y+001687
X+004030Y+001682
X+004024Y+001802
X+003786Y+001800
X+004036Y+001465
X+003029Y+002119
X+002913Y+002042
X+002684Y+002156
X+002825Y+002300
X+003095Y+002438
X+003236Y+002472
X+003117Y+002754
X+003016Y+003069
X+002766Y+002872
X+003684Y+002748
X+002856Y+001733
X+002022Y+001486
T02
X+003999Y+001174
X+003745Y+001174
X+003491Y+001174
X+003237Y+001174
X+002983Y+001174
X+002729Y+001174
X+002475Y+001174
X+002221Y+001174
X+001967Y+001174
X+001713Y+001174
X+001459Y+001174
X+001205Y+001174
X+003837Y+002916
X+003837Y+003116
X+003837Y+003316
X+004037Y+003316
X+004037Y+003116
X+004037Y+002916
T00
M30
