G04 DipTrace 3.3.1.3*
G04 Top.gbr*
%MOMM*%
G04 #@! TF.FileFunction,Copper,L1,Top*
G04 #@! TF.Part,Single*
G04 #@! TA.AperFunction,Conductor*
%ADD14C,0.7*%
G04 #@! TA.AperFunction,CopperBalancing*
%ADD15C,0.2*%
G04 #@! TA.AperFunction,Conductor*
%ADD16C,1.0*%
%ADD17C,1.5*%
%ADD18C,2.0*%
%ADD19C,0.6*%
%ADD20C,0.65*%
G04 #@! TA.AperFunction,ViaPad*
%ADD21C,1.016*%
G04 #@! TA.AperFunction,Conductor*
%ADD22C,0.95*%
%ADD23C,1.3*%
G04 #@! TA.AperFunction,CopperBalancing*
%ADD24C,0.635*%
%ADD25R,1.1X1.0*%
%ADD26R,1.3X1.5*%
%ADD27R,1.0X1.1*%
%ADD29R,0.65X1.05*%
G04 #@! TA.AperFunction,ComponentPad*
%ADD30R,1.5X1.5*%
%ADD31C,1.5*%
%ADD32R,3.2X1.8*%
%ADD33R,2.0X0.6*%
%ADD35R,0.95X2.15*%
%ADD36R,3.25X2.15*%
%ADD38R,0.6X1.1*%
%FSLAX35Y35*%
G04*
G71*
G90*
G75*
G01*
G04 Top*
%LPD*%
X3704000Y1465000D2*
D14*
Y1215000D1*
X3745000Y1174000D1*
X3704000Y1465000D2*
Y1614000D1*
X3617000Y1701000D1*
X3745000Y1174000D2*
X3999000D1*
X2980000Y2539000D2*
D15*
X2873000Y2646000D1*
Y2819000D1*
X2921000Y2867000D1*
Y2940000D1*
X2980000Y2539000D2*
Y2454000D1*
X2996000Y2438000D1*
X3095000D1*
X2373000Y1472000D2*
X2474000D1*
X2522000Y1424000D1*
Y1221000D1*
X2475000Y1174000D1*
X3894000Y1465000D2*
D16*
Y1672000D1*
X4024000Y1802000D1*
X3969000D1*
Y1999000D1*
X4037000Y3116000D2*
X3837000D1*
X3600000Y2573000D2*
Y2497000D1*
X3651740Y2445260D1*
X3708000Y2389000D1*
X3925000D1*
X3969000Y2345000D1*
Y1999000D1*
X3016000Y2940000D2*
D19*
Y3069000D1*
X2766000Y3039000D2*
D14*
X2829000D1*
X2871000Y3081000D1*
X3016000D1*
Y3069000D1*
X3600000Y2573000D2*
D16*
Y2584000D1*
X3684000Y2668000D1*
Y2748000D1*
X3894000Y1465000D2*
X4036000D1*
X3016000Y2940000D2*
D19*
Y2853000D1*
X2983000Y2820000D1*
Y2712000D1*
D15*
X2980000Y2709000D1*
X2745000Y1411000D2*
Y1622000D1*
X2856000Y1733000D1*
X2802000Y2042000D2*
D20*
X2913000D1*
X1833000Y1599000D2*
D19*
X1968000D1*
D14*
X2028000D1*
X2121000Y1692000D1*
Y1800000D1*
X2174000Y1853000D1*
X2238000D1*
D19*
X2373000D1*
X1436000Y1731000D2*
D14*
Y1632000D1*
X1443000Y1625000D1*
Y1600891D1*
Y1472000D1*
Y1347000D1*
X1459000D1*
Y1174000D1*
X1713000D2*
X1459000D1*
X1205000D1*
X1833000Y1599000D2*
Y1600891D1*
X1443000D1*
X1436000Y1731000D2*
Y1923000D1*
X1582000Y2069000D1*
X2020000D1*
X2093000Y2142000D1*
Y3283000D1*
X2137000Y3327000D1*
X2987000D1*
X3016000Y3298000D1*
Y3069000D1*
X3969000Y1999000D2*
X3703000D1*
X3651740Y2050260D1*
Y2445260D1*
X1443000Y1472000D2*
X1286000D1*
X1224027Y1410027D1*
X1205000Y1391000D1*
Y1174000D1*
X1713000D2*
Y1293000D1*
X1659000Y1347000D1*
X1459000D1*
X2766000Y3039000D2*
Y2872000D1*
X2980000Y2709000D2*
Y2739000D1*
X3102000D1*
X3117000Y2754000D1*
X1436000Y1731000D2*
X1284000D1*
X1224027Y1671027D1*
Y1410027D1*
X4037000Y3116000D2*
D17*
X3837000D1*
X3969000Y1999000D2*
D3*
X3907000Y1687000D2*
D16*
X3894000Y1672000D1*
X3903000Y1800000D2*
D21*
X3969000Y1802000D1*
X4024000D2*
X4030000Y1682000D1*
X3907000D1*
Y1687000D1*
X3969000Y1802000D2*
D16*
X3905000D1*
X3903000Y1800000D1*
Y1691000D1*
X3907000Y1687000D1*
X3903000Y1800000D2*
X3786000D1*
X3387000Y2281000D2*
D18*
Y2035000D1*
D22*
Y1701000D1*
X3409000Y2784000D2*
D16*
Y2574000D1*
X3410000Y2573000D1*
Y2472000D1*
Y2304000D1*
X3387000Y2281000D1*
X3111000Y2940000D2*
D15*
X3116000D1*
Y2864000D1*
X3196000Y2784000D1*
X3409000D1*
X3236000Y2472000D2*
X3410000D1*
X2454000Y2164000D2*
Y2231000D1*
X2523000Y2300000D1*
X2825000D1*
X3410000Y2573000D2*
D23*
Y2723000D1*
D17*
Y2783000D1*
X3409000Y2784000D1*
X3410000Y2573000D2*
D23*
Y2423000D1*
D17*
Y2304000D1*
X3387000Y2281000D1*
X4037000Y3316000D2*
D16*
X3837000D1*
X3437000D1*
X3409000Y3344000D1*
X3111000Y3210000D2*
D15*
X3114000D1*
Y3306000D1*
X3152000Y3344000D1*
X3409000D1*
X4037000Y3316000D2*
D17*
X3837000D1*
X3437000D1*
X3409000Y3344000D1*
X1606000Y1731000D2*
D15*
X1833000D1*
Y1726000D1*
X2454000Y1994000D2*
X2210000D1*
X2047000Y1831000D1*
Y1767000D1*
X2006000Y1726000D1*
X1833000D1*
X2454000Y1994000D2*
Y1986000D1*
X2604000Y1836000D1*
Y1114000D1*
X2644000Y1074000D1*
X3559000D1*
X3592000Y1107000D1*
Y1381000D1*
X3430000Y1543000D1*
X3194000D1*
X3157000Y1580000D1*
Y1701000D1*
X4037000Y2916000D2*
D16*
X3943987D1*
X3837000D1*
X4037000D2*
X3946000D1*
Y2536000D1*
X3969000Y2559000D1*
X4037000Y2916000D2*
D17*
X3837000D1*
X3943987D2*
Y2584013D1*
X3969000Y2559000D1*
X2373000Y1599000D2*
D15*
X2281000D1*
X2232000Y1550000D1*
Y1185000D1*
X2221000Y1174000D1*
X2373000Y1726000D2*
X2277000D1*
X2140000Y1589000D1*
Y1438000D1*
X1967000Y1265000D1*
Y1174000D1*
X2915000Y1411000D2*
Y1242000D1*
X2983000Y1174000D1*
X2707000Y1812000D2*
X2720000D1*
X2729000Y1821000D1*
X2901000D1*
X2936000Y1786000D1*
Y1432000D1*
X2915000Y1411000D1*
X2766000Y3209000D2*
D19*
X2921000Y3210000D1*
X2766000Y3209000D2*
D16*
X2678000D1*
X2614000Y3145000D1*
Y2704000D1*
X3029000Y2289000D1*
Y2197743D1*
Y2119000D1*
Y1544000D1*
X3120000Y1453000D1*
X3338000D1*
X3491000Y1300000D1*
Y1174000D1*
X2612000Y2042000D2*
D20*
Y2083570D1*
D14*
X2684430Y2156000D1*
X2726173Y2197743D1*
X3029000D1*
X1613000Y1472000D2*
X1698000D1*
D19*
X1833000D1*
X1968000D1*
D14*
X2008000D1*
X2022000Y1486000D1*
D21*
X3095000Y2438000D3*
X3016000Y3069000D3*
X3684000Y2748000D3*
X4036000Y1465000D3*
X3684000Y2748000D3*
X2856000Y1733000D3*
X2913000Y2042000D3*
X2766000Y2872000D3*
X3117000Y2754000D3*
X2766000Y2872000D3*
X4024000Y1802000D3*
X3786000Y1800000D3*
X3236000Y2472000D3*
X2825000Y2300000D3*
X3029000Y2119000D3*
X2022000Y1486000D3*
X2684430Y2156000D3*
X3903000Y1800000D3*
X4030000Y1682000D3*
X3907000Y1687000D3*
X2082067Y3271083D2*
D24*
X2543782D1*
X2082067Y3207917D2*
X2489003D1*
X2082067Y3144750D2*
X2473326D1*
X2082067Y3081583D2*
X2473326D1*
X2082067Y3018417D2*
X2473326D1*
X2082067Y2955250D2*
X2473326D1*
X2082067Y2892083D2*
X2473326D1*
X2082067Y2828917D2*
X2473326D1*
X2082067Y2765750D2*
X2473326D1*
X2082067Y2702583D2*
X2473326D1*
X2082067Y2639417D2*
X2489914D1*
X2082067Y2576250D2*
X2545513D1*
X2082067Y2513083D2*
X2608677D1*
X2082067Y2449917D2*
X2671841D1*
X2082067Y2386750D2*
X2479706D1*
X3640114D2*
X3718378D1*
X2082067Y2323583D2*
X2406880D1*
X3640114D2*
X4055891D1*
X2082067Y2260417D2*
X2313365D1*
X3640114D2*
X4055891D1*
X2082067Y2197250D2*
X2313365D1*
X3640114D2*
X4055891D1*
X2082067Y2134083D2*
X2313365D1*
X3640114D2*
X3718378D1*
X1132146Y2070917D2*
X2149120D1*
X3577679D2*
X3718378D1*
X1132146Y2007750D2*
X2084042D1*
X3575583D2*
X3718378D1*
X1132146Y1944583D2*
X1642349D1*
X3553890D2*
X3718378D1*
X1132146Y1881417D2*
X1642349D1*
X1132146Y1818250D2*
X1290344D1*
X3755140D2*
X4055891D1*
X1132146Y1755083D2*
X1290344D1*
X3755140D2*
X4055891D1*
X1132146Y1691917D2*
X1290344D1*
X3800713D2*
X4055891D1*
X1132146Y1628750D2*
X1290344D1*
X3828695D2*
X4055891D1*
X1132146Y1565583D2*
X1297362D1*
X1132146Y1502417D2*
X1297362D1*
X1132146Y1439250D2*
X1297362D1*
X1132146Y1376083D2*
X1297362D1*
X1289281Y1312917D2*
X1374745D1*
X1543304D2*
X1628677D1*
X1797328D2*
X1879420D1*
X1473699Y1337710D2*
X1303710D1*
Y1596692D1*
X1296711Y1596709D1*
Y1865289D1*
X1648729D1*
X1648710Y1967290D1*
X2017290D1*
Y1934568D1*
X2148763Y2065699D1*
X2160734Y2074396D1*
X2173917Y2081113D1*
X2187988Y2085685D1*
X2202602Y2087999D1*
X2319648Y2088290D1*
X2319711Y2303289D1*
X2392901D1*
X2461763Y2371699D1*
X2473734Y2380396D1*
X2486917Y2387113D1*
X2500988Y2391685D1*
X2515602Y2394000D1*
X2639667Y2394290D1*
X2728169D1*
X2731090Y2397014D1*
X2511885Y2616785D1*
X2499499Y2633834D1*
X2489932Y2652609D1*
X2483420Y2672651D1*
X2480124Y2693464D1*
X2479710Y2774000D1*
X2480124Y3155536D1*
X2483420Y3176349D1*
X2489932Y3196391D1*
X2499499Y3215166D1*
X2511885Y3232214D1*
X2568540Y3289455D1*
X2590786Y3311115D1*
X2607834Y3323501D1*
X2626648Y3333082D1*
X2624000Y3334250D1*
X2075758D1*
X2075359Y2111033D1*
X2073333Y2103850D1*
X2069686Y2097338D1*
X2064620Y2091857D1*
X2058414Y2087710D1*
X2051412Y2085127D1*
X2044000Y2084250D1*
X1125706D1*
X1125750Y1312185D1*
X1142123Y1320355D1*
X1159666Y1326703D1*
X1177830Y1330956D1*
X1196368Y1333056D1*
X1215024Y1332974D1*
X1233542Y1330712D1*
X1251669Y1326300D1*
X1269155Y1319799D1*
X1285762Y1311298D1*
X1301261Y1300914D1*
X1315439Y1288789D1*
X1328103Y1275089D1*
X1331985Y1270142D1*
X1346226Y1286496D1*
X1360152Y1298909D1*
X1375434Y1309610D1*
X1391863Y1318450D1*
X1409212Y1325309D1*
X1427244Y1330093D1*
X1445712Y1332735D1*
X1464363Y1333200D1*
X1482939Y1331481D1*
X1501187Y1327602D1*
X1518857Y1321616D1*
X1535706Y1313605D1*
X1551502Y1303679D1*
X1566029Y1291975D1*
X1579089Y1278652D1*
X1585985Y1270142D1*
X1600226Y1286496D1*
X1614152Y1298909D1*
X1629434Y1309610D1*
X1645863Y1318450D1*
X1663212Y1325309D1*
X1681244Y1330093D1*
X1699712Y1332735D1*
X1718363Y1333200D1*
X1736939Y1331481D1*
X1755187Y1327602D1*
X1772857Y1321616D1*
X1789706Y1313605D1*
X1805502Y1303679D1*
X1820029Y1291975D1*
X1833089Y1278652D1*
X1839985Y1270142D1*
X1854365Y1286635D1*
X1873372Y1302868D1*
X1884155Y1310032D1*
X1890717Y1320422D1*
X1900348Y1331693D1*
X1926300Y1357647D1*
X1752330Y1357710D1*
X1752290Y1337710D1*
X1473710Y1337801D1*
X3822770Y1624290D2*
X4043290D1*
Y1333298D1*
X4062198Y1333289D1*
X4062250Y1824659D1*
X3748793Y1824710D1*
X3748791Y1737933D1*
X3794709Y1691473D1*
X3805712Y1676329D1*
X3814210Y1659650D1*
X3819994Y1641848D1*
X3821826Y1632625D1*
X3724699Y2413710D2*
X3633808D1*
X3633791Y2089209D1*
X3571356D1*
X3570722Y2020541D1*
X3566198Y1991978D1*
X3557262Y1964475D1*
X3544133Y1938709D1*
X3527135Y1915313D1*
X3518809Y1906306D1*
X3518791Y1892698D1*
X3724651Y1892789D1*
X3724710Y2173290D1*
X4062260D1*
X4062250Y2384659D1*
X3724710Y2384710D1*
Y2413786D1*
X1303801Y1472000D2*
D15*
X1443000D1*
X3894000Y1465000D2*
X4043199D1*
X1296802Y1731000D2*
X1436000D1*
X3724801Y1999000D2*
X3969000D1*
D25*
X1443000Y1472000D3*
X1613000D3*
D26*
X3704000Y1465000D3*
X3894000D3*
X3410000Y2573000D3*
X3600000D3*
D25*
X2745000Y1411000D3*
X2915000D3*
D27*
X2766000Y3209000D3*
Y3039000D3*
D29*
X2802000Y2042000D3*
X2612000D3*
X2707000Y1812000D3*
D30*
X3999000Y1174000D3*
D31*
X3745000D3*
X3491000D3*
X3237000D3*
X2983000D3*
X2729000D3*
X2475000D3*
X2221000D3*
X1967000D3*
X1713000D3*
X1459000D3*
X1205000D3*
D25*
X1436000Y1731000D3*
X1606000D3*
D27*
X2454000Y1994000D3*
Y2164000D3*
D32*
X3409000Y3344000D3*
Y2784000D3*
X3969000Y2559000D3*
Y1999000D3*
D27*
X2980000Y2709000D3*
Y2539000D3*
D33*
X2373000Y1472000D3*
Y1599000D3*
Y1726000D3*
Y1853000D3*
X1833000D3*
Y1726000D3*
Y1599000D3*
Y1472000D3*
D35*
X3157000Y1701000D3*
X3387000D3*
X3617000D3*
D36*
X3387000Y2281000D3*
D38*
X2921000Y2940000D3*
X3016000D3*
X3111000D3*
Y3210000D3*
X2921000D3*
D30*
X4037000Y2916000D3*
D31*
Y3116000D3*
Y3316000D3*
X3837000D3*
Y3116000D3*
Y2916000D3*
M02*
